<svg width="32" height="32" viewBox="0 0 32 32" fill="none" xmlns="http://www.w3.org/2000/svg">
  <!-- Gradient background -->
  <defs>
    <linearGradient id="bg" x1="0%" y1="0%" x2="100%" y2="100%">
      <stop offset="0%" style="stop-color:#10b981"/>
      <stop offset="100%" style="stop-color:#059669"/>
    </linearGradient>
    <linearGradient id="accent" x1="0%" y1="0%" x2="100%" y2="100%">
      <stop offset="0%" style="stop-color:#fbbf24"/>
      <stop offset="100%" style="stop-color:#f59e0b"/>
    </linearGradient>
  </defs>
  
  <!-- Background -->
  <rect width="32" height="32" rx="6" fill="url(#bg)"/>
  
  <!-- Modern "J" design -->
  <path d="M12 7h8v2h-6v8c0 1.7-1.3 3-3 3s-3-1.3-3-3h2c0 .6.4 1 1 1s1-.4 1-1V7z" fill="white"/>
  
  <!-- Investment growth symbol -->
  <path d="M20 14l4 0 0 4M20 18l4-4" stroke="url(#accent)" stroke-width="1.5" stroke-linecap="round" stroke-linejoin="round"/>
  
  <!-- Community dots -->
  <circle cx="9" cy="24" r="1.5" fill="white" opacity="0.8"/>
  <circle cx="13" cy="26" r="1.5" fill="white" opacity="0.6"/>
  <circle cx="17" cy="24" r="1.5" fill="white" opacity="0.8"/>
</svg>
